<svg xmlns="http://www.w3.org/2000/svg" width="41.204" height="29.366" viewBox="0 0 41.204 29.366">
  <g id="ドローンアイコン17" transform="translate(0 -73.552)">
    <path id="パス_9" data-name="パス 9" d="M92.725,132.363a1.822,1.822,0,0,0-1.822,1.821v1.22l-5.011.97c-1.822,0-4.1-1.14-6.832-1.14s-5.01,1.14-6.832,1.14l-5.011-.97v-1.22a1.822,1.822,0,0,0-3.644,0v5.694a1.822,1.822,0,0,0,3.644,0V138.8c1.455.3,3.462.721,4.782.985,2.09.418,2.845,3.32,6.12,3.8V146.6a1.007,1.007,0,0,0-.884,1.336H72.509V157h13.1V147.94H80.884A1.007,1.007,0,0,0,80,146.6v-3.016c3.275-.477,4.03-3.38,6.12-3.8,1.32-.264,3.327-.681,4.782-.985v1.073a1.822,1.822,0,0,0,3.644,0v-5.694A1.822,1.822,0,0,0,92.725,132.363ZM82.561,149.452h1.752v1.877H82.561Zm-1.752,3.126a3.54,3.54,0,1,1-3.54-3.491A3.515,3.515,0,0,1,80.808,152.579Z" transform="translate(-58.458 -54.078)" fill="#003054"/>
    <rect id="長方形_13" data-name="長方形 13" width="13.876" height="2.378" transform="translate(0 75.139)" fill="#003054"/>
    <rect id="長方形_14" data-name="長方形 14" width="13.876" height="2.378" transform="translate(27.328 75.139)" fill="#003054"/>
    <path id="パス_10" data-name="パス 10" d="M74.32,73.552a1.041,1.041,0,0,0-1.041,1.041H75.36A1.041,1.041,0,0,0,74.32,73.552Z" transform="translate(-67.382)" fill="#003054"/>
    <path id="パス_11" data-name="パス 11" d="M413.9,73.552a1.041,1.041,0,0,0-1.041,1.041h2.081A1.041,1.041,0,0,0,413.9,73.552Z" transform="translate(-379.633)" fill="#003054"/>
    <path id="パス_12" data-name="パス 12" d="M217.726,366.39a1.382,1.382,0,1,0,1.4,1.382A1.392,1.392,0,0,0,217.726,366.39Z" transform="translate(-198.916 -269.271)" fill="#003054"/>
  </g>
</svg>
