<svg xmlns="http://www.w3.org/2000/svg" width="35.106" height="28.548" viewBox="0 0 35.106 28.548">
  <g id="グループ_13" data-name="グループ 13" transform="translate(0.001 0.007)">
    <path id="パス_21" data-name="パス 21" d="M86.126,126.941c13.245,0,20.493-10.984,20.493-20.493,0-.309,0-.618-.014-.927a14.673,14.673,0,0,0,3.6-3.736,14.6,14.6,0,0,1-4.144,1.138,7.247,7.247,0,0,0,3.174-3.989,14.327,14.327,0,0,1-4.579,1.742,7.2,7.2,0,0,0-12.459,4.93,7.962,7.962,0,0,0,.183,1.643A20.453,20.453,0,0,1,77.53,99.72a7.232,7.232,0,0,0,2.233,9.621,7.285,7.285,0,0,1-3.259-.9v.1a7.218,7.218,0,0,0,5.773,7.065,7.244,7.244,0,0,1-3.245.126,7.2,7.2,0,0,0,6.728,5,14.446,14.446,0,0,1-8.947,3.09,13.858,13.858,0,0,1-1.714-.1,20.488,20.488,0,0,0,11.026,3.217" transform="translate(-75.1 -98.4)" fill="#949494"/>
  </g>
</svg>
